<?xml version="1.0" encoding="UTF-8" standalone="no"?>
<svg
   version="1.0"
   width="478.000000pt"
   height="265.000000pt"
   viewBox="0 0 478.000000 265.000000"
   preserveAspectRatio="xMidYMid meet"
   id="svg30"
   sodipodi:docname="Schubino_Logo2.svg"
   inkscape:version="1.1.2 (b8e25be833, 2022-02-05)"
   xmlns:inkscape="http://www.inkscape.org/namespaces/inkscape"
   xmlns:sodipodi="http://sodipodi.sourceforge.net/DTD/sodipodi-0.dtd"
   xmlns="http://www.w3.org/2000/svg"
   xmlns:svg="http://www.w3.org/2000/svg">
  <defs
     id="defs34" />
  <sodipodi:namedview
     id="namedview32"
     pagecolor="#ffffff"
     bordercolor="#666666"
     borderopacity="1.0"
     inkscape:pageshadow="2"
     inkscape:pageopacity="0.0"
     inkscape:pagecheckerboard="0"
     inkscape:document-units="pt"
     showgrid="false"
     inkscape:zoom="2.1056485"
     inkscape:cx="318.42921"
     inkscape:cy="176.4302"
     inkscape:window-width="1920"
     inkscape:window-height="991"
     inkscape:window-x="-9"
     inkscape:window-y="-9"
     inkscape:window-maximized="1"
     inkscape:current-layer="g28" />
  <g
     transform="translate(0.000000,265.000000) scale(0.100000,-0.100000)"
     fill="#000000"
     stroke="none"
     id="g28">
    <path
       d="M2873 2321 c-35 -14 -63 -30 -63 -34 0 -5 9 -5 20 -2 48 15 50 3 50 -304 0 -298 -2 -311 -42 -311 -10 0 -18 -4 -18 -10 0 -6 42 -10 105 -10 63 0 105 4 105 10 0 6 -10 10 -23 10 -43 0 -47 15 -47 171 l0 147 35 31 c44 38 101 43 131 10 17 -18 19 -40 22 -169 4 -162 -3 -190 -43 -190 -14 0 -25 -4 -25 -10 0 -6 42 -10 105 -10 63 0 105 4 105 10 0 6 -8 10 -19 10 -39 0 -46 26 -51 200 -6 184 -12 206 -70 230 -42 17 -93 2 -148 -46 l-42 -36 0 166 c0 127 -3 166 -12 165 -7 -1 -41 -13 -75 -28z"
       id="path2"
       style="fill:#ff0000" />
    <path
       d="M1987 2315 c-74 -26 -117 -84 -117 -160 0 -85 26 -115 180 -205 124 -73 158 -102 166 -146 7 -41 -17 -89 -56 -109 -41 -21 -123 -19 -169 5 -48 24 -77 60 -93 114 -21 75 -28 61 -28 -60 0 -119 0 -119 19 -94 19 23 22 24 63 12 119 -34 136 -36 195 -23 146 33 200 194 99 294 -18 18 -77 57 -131 87 -128 72 -175 115 -175 162 0 41 34 84 75 94 47 12 113 -2 151 -31 37 -29 73 -93 74 -132 0 -13 5 -23 10 -23 6 0 10 45 10 115 0 105 -10 145 -23 95 -6 -25 -27 -25 -97 0 -65 23 -101 24 -153 5z"
       id="path4"
       style="fill:#ff0000" />
    <path
       d="M3932 2103 c5 -232 11 -268 61 -322 48 -52 137 -66 195 -31 35 21 72 74 72 103 0 27 13 20 37 -22 40 -70 138 -93 204 -48 49 33 75 78 88 150 14 81 15 387 1 387 -5 0 -10 -15 -10 -34 0 -60 -3 -61 -315 -61 -312 0 -315 1 -315 61 0 19 -5 34 -11 34 -8 0 -10 -62 -7 -217z m326 -56 c-7 -135 -60 -207 -152 -207 -104 0 -159 92 -141 235 l6 55 146 0 146 0 -5 -83z m306 67 c3 -9 6 -41 6 -72 -1 -113 -58 -182 -151 -182 -89 0 -129 58 -129 190 l0 80 134 0 c113 0 135 -2 140 -16z"
       id="path6"
       style="fill:#ff0000" />
    <path
       d="M2535 2095 c-57 -20 -120 -92 -135 -156 -33 -136 42 -278 154 -294 85 -13 184 61 201 150 5 27 4 28 -7 11 -37 -53 -63 -77 -98 -86 -57 -15 -107 5 -144 58 -26 37 -31 54 -34 118 -5 86 7 123 50 159 54 45 120 28 134 -33 10 -47 13 -51 39 -58 49 -12 72 37 39 85 -20 29 -89 61 -129 60 -16 0 -48 -6 -70 -14z"
       id="path8"
       style="fill:#ff0000" />
    <path
       d="M3305 2090 c3 -5 17 -10 30 -10 13 0 27 -6 32 -12 4 -7 10 -88 13 -180 4 -149 7 -170 26 -195 49 -66 114 -67 187 -3 25 22 48 40 51 40 3 0 6 -20 6 -45 0 -25 2 -45 5 -45 14 0 135 55 135 61 0 4 -10 5 -21 2 -43 -12 -49 16 -49 214 l0 183 -77 0 c-46 0 -73 -4 -68 -9 6 -5 19 -11 30 -13 35 -6 45 -45 45 -186 l0 -132 -47 -30 c-55 -35 -95 -38 -123 -10 -19 19 -20 33 -20 200 l0 180 -81 0 c-51 0 -78 -4 -74 -10z"
       id="path10"
       style="fill:#ff0000" />
    <path
       d="M3930 1525 c0 -63 4 -105 10 -105 6 0 10 11 10 24 0 38 42 46 253 46 176 0 189 1 182 18 -4 9 -16 41 -27 70 -20 49 -41 73 -32 35 10 -41 -8 -47 -157 -51 -168 -5 -219 5 -219 43 0 14 -4 25 -10 25 -6 0 -10 -42 -10 -105z"
       id="path12"
       style="fill:#ff0000" />
    <path
       d="M4539 1549 c-18 -34 3 -69 41 -69 22 0 33 6 41 24 16 35 -3 66 -41 66 -20 0 -33 -7 -41 -21z"
       id="path14"
       style="fill:#ff0000" />
    <path
       d="M617 1508 c-99 -124 -184 -284 -218 -409 -26 -95 -36 -278 -20 -361 29 -153 97 -283 223 -430 l59 -68 1605 0 1605 0 -33 40 c-18 21 -35 34 -37 29 -8 -23 -132 143 -184 246 -50 100 -68 166 -74 280 -7 117 12 226 58 345 45 118 185 333 200 309 13 -22 18 8 6 35 l-12 26 -1572 0 -1572 0 -34 -42z m3032 -159 c-26 -45 -51 -90 -54 -100 -6 -18 -24 -19 -526 -19 -455 0 -519 -2 -519 -15 0 -13 63 -15 511 -15 483 0 511 -1 504 -17 -16 -44 -44 -157 -50 -207 l-7 -56 -634 0 c-627 0 -634 0 -634 -20 0 -20 7 -20 635 -20 l635 0 0 -53 c0 -73 33 -197 74 -279 l34 -68 -379 0 c-330 0 -379 -2 -379 -15 0 -13 50 -15 389 -15 l390 0 19 -27 c10 -16 22 -34 26 -41 6 -9 -286 -12 -1446 -12 l-1454 0 -57 72 c-66 84 -139 226 -161 314 -54 212 19 460 188 642 l30 32 1457 0 1457 0 -49 -81z"
       id="path16" />
    <path
       d="M1430 1025 c0 -13 103 -15 870 -15 767 0 870 2 870 15 0 13 -103 15 -870 15 -767 0 -870 -2 -870 -15z"
       id="path18" />
    <path
       d="M1930 715 c0 -13 41 -15 310 -15 269 0 310 2 310 15 0 13 -41 15 -310 15 -269 0 -310 -2 -310 -15z"
       id="path20" />
    <path
       d="M990 465 c0 -13 41 -15 310 -15 269 0 310 2 310 15 0 13 -41 15 -310 15 -269 0 -310 -2 -310 -15z"
       id="path22" />
    <path
       d="M4580 1379 c0 -25 -16 -57 -43 -86 -20 -23 -24 -23 -276 -23 -283 0 -304 4 -309 55 -2 17 -8 34 -13 40 -5 5 -9 -36 -9 -108 0 -71 4 -117 10 -117 6 0 10 15 10 34 0 18 6 39 14 45 9 8 85 11 252 9 l239 -3 -267 -215 c-147 -118 -267 -218 -268 -222 0 -5 138 -8 308 -8 341 0 352 -2 352 -61 0 -16 5 -29 10 -29 6 0 10 43 10 110 0 67 -4 110 -10 110 -5 0 -10 -13 -10 -29 0 -59 -9 -61 -258 -61 l-227 1 27 22 c14 12 128 103 252 202 l225 180 0 88 c1 52 -3 87 -9 87 -5 0 -10 -9 -10 -21z"
       id="path24"
       style="fill:#ff0000" />
    <path
       d="M4043 609 c-137 -67 -163 -224 -54 -329 52 -51 102 -70 182 -70 224 0 298 294 98 394 -69 34 -163 36 -226 5z m221 -70 c53 -15 96 -59 96 -99 0 -53 -25 -86 -87 -116 -49 -24 -69 -28 -143 -28 -95 0 -144 19 -168 65 -16 30 -9 85 15 111 55 61 194 93 287 67z"
       id="path26"
       style="fill:#ff0000" />
    <path
       style="fill:#ff0000;stroke-width:1.79495"
       d="m 462.18444,133.50402 c -3.69953,-1.37455 -7.14066,-4.48106 -9.00239,-8.12697 -1.16215,-2.27591 -1.71318,-7.63135 -2.24776,-21.846 -0.50745,-13.493419 -1.30904,-25.304339 -1.76775,-26.046548 -0.3943,-0.637984 -3.30476,-1.735868 -4.60174,-1.735868 -0.64439,0 -1.77324,-0.228739 -2.50855,-0.508308 -2.5197,-0.958007 -0.0217,-1.409394 9.49373,-1.715499 l 9.20256,-0.296041 0.30462,22.512284 c 0.17969,13.27977 0.51404,23.38873 0.81526,24.64939 0.92546,3.87325 4.00452,6.17387 8.26284,6.17387 3.43347,0 6.36034,-1.15541 12.22316,-4.82523 l 4.79847,-3.0036 -0.27895,-16.15066 c -0.36398,-21.073115 -1.12235,-24.808711 -5.3355,-26.281489 -4.58826,-1.603906 -4.63038,-1.62695 -3.81154,-2.085197 0.42211,-0.236221 4.60898,-0.55585 9.30417,-0.710285 l 8.53671,-0.280791 0.0183,15.151985 c 0.0208,17.162027 0.62658,31.811537 1.43175,34.623417 0.89588,3.12866 1.68101,3.68999 4.84134,3.46139 1.50255,-0.10868 2.73191,-0.0582 2.73191,0.11216 0,0.35549 -9.89265,5.13292 -13.72797,6.62962 -1.41214,0.55107 -2.82354,0.9037 -3.13645,0.78363 -0.37212,-0.1428 -0.65442,-2.02213 -0.81608,-5.43288 -0.13594,-2.86801 -0.40059,-5.46281 -0.58811,-5.76623 -0.43856,-0.7096 -1.59528,0.045 -7.13017,4.65131 -6.73468,5.60483 -12.60923,7.69835 -17.01191,6.06254 z"
       id="path147"
       transform="matrix(7.5,0,0,-7.5,0,2650)" />
    <path
       style="fill:#ff0000;stroke-width:1.79495"
       d="m 340.41448,133.65796 c -9.20638,-1.25131 -17.80839,-10.74477 -20.34341,-22.45166 -1.0817,-4.99538 -0.76392,-13.476427 0.67237,-17.944438 2.0345,-6.328913 9.15023,-14.896527 14.71355,-17.715672 3.14109,-1.591715 8.98945,-3.121948 11.93169,-3.121948 4.02092,0 10.88817,2.677314 14.82611,5.78021 2.48823,1.960597 4.38218,5.997211 4.03357,8.596819 -0.51993,3.877194 -4.12511,5.625251 -8.14094,3.94733 -1.90014,-0.79393 -2.29555,-1.442655 -3.34286,-5.484321 -1.12338,-4.33528 -2.35354,-6.478657 -4.55414,-7.934947 -6.78878,-4.492604 -17.67766,1.449722 -20.13022,10.985548 -0.84031,3.26724 -0.96905,12.893639 -0.24159,18.065649 0.94739,6.73571 6.05556,14.13744 11.66049,16.89602 2.02585,0.99706 3.00365,1.15023 7.32455,1.14734 4.54054,-0.003 5.21332,-0.12245 7.52143,-1.33507 2.93082,-1.53976 5.75871,-4.23125 8.83192,-8.40591 2.40008,-3.26028 2.62129,-2.98295 1.22543,1.53632 -3.30871,10.71235 -15.46423,18.86908 -25.98795,17.43873 z"
       id="path186"
       transform="matrix(7.5,0,0,-7.5,0,2650)" />
    <path
       style="fill:#ff0000;stroke-width:1.79495"
       d="m 272.87626,133.45818 c -1.67653,-0.38113 -5.83839,-1.46841 -9.24858,-2.41616 -8.14953,-2.26491 -8.8838,-2.24596 -11.47403,0.29617 l -2.05758,2.01935 -0.31223,-1.24402 c -0.54314,-2.16406 -0.042,-25.38625 0.56088,-25.98878 0.40394,-0.40373 0.98143,0.78323 2.28625,4.69909 2.84464,8.53696 6.1361,12.67544 12.6882,15.95332 4.08194,2.04211 8.77735,2.83625 14.80553,2.50408 3.97148,-0.21884 5.13449,-0.48212 7.69243,-1.74139 5.06075,-2.4914 7.79539,-6.91532 7.79539,-12.61088 0,-7.3655 -2.76701,-10.09335 -22.17964,-21.865741 -18.18565,-11.028308 -21.82507,-14.380858 -23.33264,-21.49345 -1.16701,-5.505882 -0.34262,-11.709609 2.16937,-16.324952 2.93022,-5.383792 9.92215,-10.052692 17.40634,-11.623178 4.31945,-0.906399 7.91821,-0.425913 16.04266,2.141927 9.78686,3.093267 11.71097,3.053944 12.78006,-0.261187 0.8225,-2.550452 1.00223,-2.757689 1.5472,-1.783891 1.1758,2.101033 1.1679,27.589554 -0.009,28.766368 -0.58557,0.585572 -0.70132,0.272706 -1.32573,-3.583361 -0.79249,-4.894151 -5.00646,-12.3738 -8.80133,-15.622063 -5.85653,-5.012971 -17.01334,-7.036985 -23.34669,-4.235442 -6.33638,2.802882 -9.74636,10.868718 -6.99648,16.549209 2.03936,4.212764 8.85245,9.532672 21.81928,17.037303 13.75407,7.960248 19.29523,12.300018 21.96259,17.20085 6.93105,12.734608 -0.0642,27.950318 -15.03911,32.712278 -4.81111,1.52992 -11.08972,1.90198 -15.43321,0.91455 z"
       id="path225"
       transform="matrix(7.5,0,0,-7.5,0,2650)" />
    <path
       style="fill:#ff0000;stroke-width:1.79495"
       d="m 542.30241,121.41994 c -8.56412,-2.53184 -14.46853,-9.61834 -16.09193,-19.31363 -0.39363,-2.350821 -0.92608,-8.121014 -1.18323,-12.822654 -0.54377,-9.94222 -0.58798,-42.785619 -0.0594,-44.135392 0.59127,-1.509872 1.1168,-0.04923 1.4837,4.123719 0.39226,4.461412 1.049,5.340076 4.80888,6.433885 2.15217,0.626102 7.27436,0.768686 33.4112,0.930053 31.39822,0.19385 39.84704,-0.107303 43.28263,-1.542782 1.99769,-0.834689 3.00783,-2.990041 3.05478,-6.518025 0.0414,-3.107271 0.54728,-4.664235 1.19071,-3.664306 0.67193,1.044224 0.83622,33.295251 0.21471,42.148583 -0.63505,9.046211 -1.66084,13.577079 -4.28118,18.909789 -2.30251,4.68591 -6.26849,8.61332 -10.9206,10.81441 -2.76989,1.31053 -3.54719,1.4619 -7.37065,1.43531 -7.47077,-0.052 -12.30729,-2.81353 -16.9365,-9.67046 -3.7516,-5.55699 -4.83041,-6.0175 -5.2558,-2.24352 -0.56302,4.99513 -6.08448,11.94181 -11.40146,14.34446 -3.8608,1.74462 -9.58177,2.06072 -13.94586,0.77056 z m 13.21306,-14.90551 c 3.14756,-1.45492 6.24045,-4.4422 8.0594,-7.784221 2.76386,-5.078122 3.86249,-10.859817 4.8858,-25.712325 l 0.26995,-3.918033 h -19.66064 -19.66064 l -0.26039,1.306011 c -0.14322,0.718306 -0.52604,4.297963 -0.85072,7.954794 -0.52086,5.86633 -0.49568,7.207677 0.214,11.397913 0.95059,5.612646 2.74359,9.747448 5.54451,12.786081 3.9829,4.32094 7.17503,5.54272 13.99294,5.35576 3.95963,-0.10859 5.20075,-0.33899 7.46579,-1.38598 z m 37.98376,-1.37561 c 7.48411,-1.57413 12.33661,-6.424554 14.93203,-14.925622 0.6685,-2.189592 0.86586,-4.439663 0.87299,-9.95289 0.0107,-8.265184 -0.24326,-9.561273 -2.02243,-10.322203 -0.8754,-0.374395 -6.87532,-0.612276 -18.58474,-0.736836 l -17.29198,-0.183945 0.32257,9.420797 c 0.44465,12.986182 1.74127,18.331637 5.47932,22.589039 3.3011,3.75974 9.96709,5.44203 16.29224,4.11166 z"
       id="path264"
       transform="matrix(7.5,0,0,-7.5,0,2650)" />
    <path
       style="fill:#ff0000;stroke-width:1.79495"
       d="m 524.83765,161.82663 c -0.91253,-6.19728 -0.63377,-24.16 0.39083,-25.1846 0.50718,-0.50718 1.19751,0.96019 1.20538,2.56218 0.018,3.66441 3.17777,5.21629 12.15707,5.97086 7.79665,0.65517 30.74695,-0.1487 34.83947,-1.22032 3.42812,-0.89764 3.97816,-1.69497 3.64251,-5.28013 -0.24735,-2.6421 -0.2131,-2.78036 0.47067,-1.89966 0.40558,0.52241 1.14969,1.7458 1.65356,2.71865 1.19631,2.3098 5.18339,12.63243 5.18339,13.41992 0,0.33554 -0.48085,0.75654 -1.06856,0.93556 -0.5877,0.17902 -11.54039,0.50647 -24.33929,0.72768 -24.1164,0.41681 -27.93757,0.74215 -30.80822,2.62307 -0.65356,0.42823 -1.30867,1.40401 -1.45581,2.16841 -0.14713,0.7644 -0.39135,2.03096 -0.54271,2.81456 -0.37804,1.95722 -1.01271,1.78704 -1.32829,-0.35618 z"
       id="path303"
       transform="matrix(7.5,0,0,-7.5,0,2650)" />
    <path
       style="fill:#ff0000;stroke-width:1.79495"
       d="m 611.2832,259.92756 c -0.16201,-0.60497 -0.29749,-1.90822 -0.30106,-2.89612 -0.0103,-2.84639 -1.15499,-5.02311 -3.06024,-5.81917 -3.57423,-1.49342 -8.54158,-1.72514 -45.14992,-2.1062 -20.74488,-0.21593 -37.54252,-0.58046 -38.17804,-0.82852 -1.0705,-0.41782 -0.80134,-0.72518 4.74913,-5.4231 7.51262,-6.35867 18.78176,-15.53514 44.55906,-36.28447 l 20.6284,-16.60475 -16.35419,-0.37581 c -16.66461,-0.38293 -45.48452,-0.13194 -48.30905,0.42072 -2.0352,0.39822 -2.88808,2.0675 -3.4032,6.66083 -0.39562,3.52768 -0.69121,4.41967 -1.27213,3.83876 -1.06277,-1.06277 -1.22494,-26.18091 -0.17996,-27.87173 0.41201,-0.66664 1.17568,1.36156 1.69611,4.50457 1.09181,6.59382 3.90396,7.01342 45.56213,6.79835 32.69036,-0.16877 30.33952,0.11064 33.87567,-4.02631 2.27937,-2.66663 4.15026,-6.32415 4.576,-8.94591 0.63874,-3.93349 0.74298,-4.21234 1.34859,-3.6077 0.39909,0.39846 0.60712,3.83442 0.70146,11.58534 l 0.13409,11.01889 -31.95327,25.53921 c -17.5743,14.04656 -32.69203,26.15179 -33.59495,26.9005 l -1.64167,1.36129 4.23278,0.35259 c 7.28434,0.60678 51.7703,-0.0855 55.24361,-0.85968 3.85981,-0.86034 5.20228,-2.14666 5.56461,-5.33187 0.57194,-5.02797 0.72618,-5.61452 1.32018,-5.02052 0.77004,0.77004 0.79882,26.82236 0.0305,27.59071 -0.39012,0.39011 -0.60781,0.23967 -0.82461,-0.5699 z"
       id="path342"
       transform="matrix(7.5,0,0,-7.5,0,2650)" />
    <path
       style="fill:#ff0000;stroke-width:1.79495"
       d="m 606.41649,153.91932 c -1.34237,-1.34237 -1.6144,-1.96313 -1.61293,-3.68057 0.004,-4.36811 3.43018,-6.93219 7.59581,-5.68414 4.48091,1.34251 5.70481,6.29853 2.3772,9.62614 -1.16992,1.16992 -1.71858,1.35328 -4.04933,1.35328 -2.43287,0 -2.85366,-0.15762 -4.31075,-1.61471 z"
       id="path381"
       transform="matrix(7.5,0,0,-7.5,0,2650)" />
    <path
       style="fill:#ff0000;stroke-width:1.79495"
       d="m 547.57476,324.33392 c -10.65118,-2.09801 -20.99538,-11.85423 -23.70519,-22.35776 -3.3375,-12.93649 5.22361,-26.67069 19.43098,-31.17222 4.39288,-1.39187 14.47351,-1.48414 19.23398,-0.17607 10.61851,2.91775 18.61787,10.54775 21.0997,20.12545 3.79962,14.66322 -6.18915,30.48214 -21.19841,33.57128 -4.38299,0.90208 -10.30981,0.9058 -14.86106,0.009 z m 15.90959,-11.38764 c 8.54884,-2.61196 15.8226,-8.0963 17.28958,-13.03616 1.05059,-3.5377 0.96524,-6.87133 -0.23964,-9.36028 -2.06696,-4.26977 -7.53978,-8.27604 -13.25063,-9.69989 -1.67168,-0.41679 -5.00564,-0.62821 -9.26081,-0.58727 -5.50411,0.053 -7.4664,0.27788 -11.39791,1.30646 -9.07193,2.37342 -16.29126,6.89576 -18.34189,11.48976 -0.47559,1.06545 -1.00488,3.12985 -1.17621,4.58755 -1.06562,9.06677 4.1344,14.42026 15.57293,16.03254 4.72897,0.66655 17.72262,0.20894 20.80458,-0.73271 z"
       id="path420"
       transform="matrix(7.5,0,0,-7.5,0,2650)" />
    <path
       style="fill:#ff0000;stroke-width:1.79495"
       d="m 266.45478,131.55799 c -11.03021,-2.86761 -11.78567,-2.88982 -14.51203,-0.42672 l -1.90102,1.71745 -0.0667,-2.54855 c -0.15028,-5.74624 0.20087,-21.50236 0.50452,-22.63775 0.2828,-1.05741 0.5036,-0.71729 1.65424,2.54821 2.99249,8.49267 6.04225,12.6613 11.69395,15.98408 4.23158,2.48785 8.58661,3.36514 15.54914,3.13225 6.35637,-0.21261 8.61619,-0.96539 11.95603,-3.98273 2.94534,-2.66094 3.95046,-4.9545 4.20512,-9.5956 0.45814,-8.34939 -1.73127,-10.5131 -25.33761,-25.040235 -8.96356,-5.516091 -14.71181,-9.860796 -16.90061,-12.774007 -4.33046,-5.763656 -4.4264,-16.81617 -0.20403,-23.504835 1.80369,-2.857221 5.84042,-6.138746 9.96584,-8.101386 7.62492,-3.627502 10.98024,-3.669968 22.80679,-0.288652 10.47337,2.994433 11.52854,2.901821 13.219,-1.16023 l 0.69174,-1.662196 0.40329,2.374565 c 0.5638,3.319565 0.43567,24.423652 -0.15713,25.882762 -0.44574,1.097129 -0.50921,1.006975 -0.83586,-1.187282 -0.79156,-5.31731 -4.2028,-12.144905 -8.04106,-16.094183 -3.92576,-4.039311 -10.49252,-6.444093 -17.63264,-6.457168 -4.75254,-0.0087 -7.55643,0.901286 -10.34777,3.358327 -4.11889,3.625592 -5.79418,9.901145 -3.87156,14.502642 1.57221,3.762817 8.90327,9.471135 22.80189,17.75464 9.52322,5.675792 13.3684,8.32972 16.73837,11.55277 4.83625,4.625397 6.76983,8.988388 6.76983,15.275668 0,13.318 -11.87105,23.52547 -27.3075,23.48068 -2.93067,-0.008 -5.63863,-0.4892 -11.84428,-2.10252 z"
       id="path509"
       transform="matrix(7.5,0,0,-7.5,0,2650)" />
  </g>
</svg>
